HIERARCHY
ROOT Hips
{
	OFFSET -0.001795 -0.223333 0.028219
	CHANNELS 6 Xposition Yposition Zposition Zrotation Yrotation Xrotation 
	JOINT LeftUpLeg
	{
		OFFSET 0.069520 -0.091406 -0.006815
		CHANNELS 3 Zrotation Yrotation Xrotation
		JOINT LeftLeg
		{
			OFFSET 0.034277 -0.375199 -0.004496
			CHANNELS 3 Zrotation Yrotation Xrotation
			JOINT LeftFoot
			{
				OFFSET -0.013596 -0.397961 -0.043693
				CHANNELS 3 Zrotation Yrotation Xrotation
				JOINT LeftToe
				{
					OFFSET 0.026358 -0.055791 0.119288
					CHANNELS 3 Zrotation Yrotation Xrotation
					End Site
					{
						OFFSET 0.000000 0.000000 0.000000
					}
				}
			}
		}
	}
	JOINT RightUpLeg
	{
		OFFSET -0.067670 -0.090522 -0.004320
		CHANNELS 3 Zrotation Yrotation Xrotation
		JOINT RightLeg
		{
			OFFSET -0.038290 -0.382569 -0.008850
			CHANNELS 3 Zrotation Yrotation Xrotation
			JOINT RightFoot
			{
				OFFSET 0.015774 -0.398415 -0.042312
				CHANNELS 3 Zrotation Yrotation Xrotation
				JOINT RightToe
				{
					OFFSET -0.025372 -0.048144 0.123348
					CHANNELS 3 Zrotation Yrotation Xrotation
					End Site
					{
						OFFSET 0.000000 0.000000 0.000000
					}
				}
			}
		}
	}
	JOINT Spine
	{
		OFFSET -0.002533 0.108963 -0.026696
		CHANNELS 3 Zrotation Yrotation Xrotation
		JOINT Spine1
		{
			OFFSET 0.005487 0.135180 0.001092
			CHANNELS 3 Zrotation Yrotation Xrotation
			JOINT Spine2
			{
				OFFSET 0.001457 0.052922 0.025425
				CHANNELS 3 Zrotation Yrotation Xrotation
				JOINT Neck
				{
					OFFSET -0.002778 0.213870 -0.042857
					CHANNELS 3 Zrotation Yrotation Xrotation
					JOINT Head
					{
						OFFSET 0.005152 0.064970 0.051349
						CHANNELS 3 Zrotation Yrotation Xrotation
						End Site
						{
							OFFSET 0.000000 0.000000 0.000000
						}
					}
				}
				JOINT LeftShoulder
				{
					OFFSET 0.078845 0.121749 -0.034090
					CHANNELS 3 Zrotation Yrotation Xrotation
					JOINT LeftArm
					{
						OFFSET 0.090977 0.030469 -0.008868
						CHANNELS 3 Zrotation Yrotation Xrotation
						JOINT LeftForeArm
						{
							OFFSET 0.259612 -0.012772 -0.027456
							CHANNELS 3 Zrotation Yrotation Xrotation
							JOINT LeftHand
							{
								OFFSET 0.249234 0.008986 -0.001171
								CHANNELS 3 Zrotation Yrotation Xrotation
								End Site
								{
									OFFSET 0.000000 0.000000 0.000000
								}
							}
						}
					}
				}
				JOINT RightShoulder
				{
					OFFSET -0.081759 0.118833 -0.038615
					CHANNELS 3 Zrotation Yrotation Xrotation
					JOINT RightArm
					{
						OFFSET -0.096012 0.032551 -0.009143
						CHANNELS 3 Zrotation Yrotation Xrotation
						JOINT RightForeArm
						{
							OFFSET -0.253742 -0.013329 -0.021401
							CHANNELS 3 Zrotation Yrotation Xrotation
							JOINT RightHand
							{
								OFFSET -0.255298 0.007772 -0.005559
								CHANNELS 3 Zrotation Yrotation Xrotation
								End Site
								{
									OFFSET 0.000000 0.000000 0.000000
								}
							}
						}
					}
				}
			}
		}
	}
}
MOTION
Frames: 7
Frame Time: 0.050000
-0.008112 0.942226 -0.025223 -0.210405 -3.094372 6.015760 0.687255 -0.580231 -6.629590 3.772693 -0.278025 -2.145927 -3.302356 -3.294636 7.417529 0.000000 0.000000 0.000000 -0.740887 0.943061 -9.662587 -0.942082 0.425471 6.509817 -2.757926 -8.225011 3.512835 0.000000 0.000000 0.000000 5.492850 -0.249396 1.033032 0.217470 -0.121103 1.336522 1.261347 2.475592 2.849495 6.985114 -3.443917 -12.821435 0.000000 0.000000 0.000000 -22.312455 -5.104262 0.516410 -32.413596 -10.141122 -1.178363 -129.927959 -64.138963 111.734173 0.000000 0.000000 0.000000 14.781854 9.083171 3.238145 12.822166 18.478893 -0.128486 128.359300 84.946695 128.313629 0.000000 0.000000 0.000000 
-0.008046 0.941740 -0.024755 -0.253752 -3.164082 6.069955 0.754095 -0.565986 -6.484840 3.661940 -0.256343 -2.323745 -3.260995 -3.288056 7.280078 0.000000 0.000000 0.000000 -0.841121 0.961710 -9.892074 -0.711618 0.385652 6.428209 -2.523591 -7.505058 2.961958 0.000000 0.000000 0.000000 5.653679 -0.254828 1.017133 0.436025 -0.222640 1.142911 1.024340 1.979434 2.712387 7.169099 -3.529521 -13.240104 0.000000 0.000000 0.000000 -22.141289 -4.543579 0.349141 -33.041172 -9.493411 -1.385043 -127.316935 -63.834228 108.307418 0.000000 0.000000 0.000000 14.888706 7.902786 2.529233 13.892769 17.750594 -0.067214 127.037516 82.234127 124.396524 0.000000 0.000000 0.000000 
-0.007929 0.941267 -0.024185 -0.180067 -3.383640 6.141868 0.756381 -0.548968 -6.276936 3.449416 -0.228428 -2.476585 -3.092198 -3.160649 6.916677 0.000000 0.000000 0.000000 -1.012215 0.972879 -10.074477 -0.579119 0.373394 6.569708 -2.375506 -6.934321 2.321006 0.000000 0.000000 0.000000 5.789453 -0.241755 0.814934 0.535002 -0.267112 1.060991 0.809567 1.528289 2.808650 7.261208 -3.642054 -13.168354 0.000000 0.000000 0.000000 -22.366037 -4.040560 0.208125 -33.583182 -8.765132 -1.632727 -125.672185 -63.349771 105.973405 0.000000 0.000000 0.000000 15.419397 7.114217 2.002966 14.882699 17.257237 -0.011100 124.397912 80.509823 119.733480 0.000000 0.000000 0.000000 
-0.007791 0.940678 -0.023586 -0.166259 -3.614163 6.267351 0.796791 -0.535016 -6.120200 3.147561 -0.189024 -2.693292 -2.924029 -3.110035 6.379396 0.000000 0.000000 0.000000 -1.177902 0.979365 -10.204246 -0.368358 0.340716 6.547185 -2.199823 -6.310987 1.768033 0.000000 0.000000 0.000000 5.831301 -0.232937 0.680222 0.642865 -0.315762 0.978762 0.874829 1.364861 2.724576 7.194382 -3.563045 -13.547734 0.000000 0.000000 0.000000 -22.367179 -3.477410 -0.028810 -34.314707 -7.997585 -1.873534 -124.750401 -63.159276 104.768384 0.000000 0.000000 0.000000 15.818208 6.584206 1.646654 16.081190 17.296909 0.094421 119.750415 79.070284 113.123626 0.000000 0.000000 0.000000 
-0.007756 0.940276 -0.023079 -0.111084 -4.001454 6.214132 0.701472 -0.502628 -5.692385 3.046573 -0.168919 -2.909619 -2.954000 -3.319760 6.113736 0.000000 0.000000 0.000000 -1.245979 0.973113 -10.154243 -0.401658 0.349298 6.572272 -1.876032 -5.333752 1.277273 0.000000 0.000000 0.000000 5.971437 -0.226002 0.581396 0.789868 -0.392321 1.368612 1.130179 1.560567 2.418803 7.346849 -3.679941 -13.371364 0.000000 0.000000 0.000000 -22.703318 -3.028019 -0.308687 -34.991500 -6.629922 -2.239255 -123.714451 -62.697387 102.962126 0.000000 0.000000 0.000000 16.870703 6.722252 1.650545 17.151267 17.366273 0.193634 120.573219 78.145285 113.106905 0.000000 0.000000 0.000000 
-0.007783 0.939720 -0.022721 -0.024241 -4.111865 6.194193 0.552319 -0.475308 -5.314253 3.009508 -0.146650 -3.228735 -2.830271 -3.328409 5.595802 0.000000 0.000000 0.000000 -1.375985 0.949030 -9.951580 -0.311813 0.327279 6.396671 -1.550848 -4.398354 0.958288 0.000000 0.000000 0.000000 5.872651 -0.206250 0.406713 0.952600 -0.475777 1.618775 1.525880 1.597369 2.325230 7.382593 -3.624685 -13.920588 0.000000 0.000000 0.000000 -22.820643 -2.647849 -0.511555 -35.403310 -5.695259 -2.508479 -123.301131 -62.730178 102.522449 0.000000 0.000000 0.000000 17.627055 7.364989 1.928230 18.771966 18.102846 0.403162 118.315109 77.902933 110.332890 0.000000 0.000000 0.000000 
-0.007763 0.939509 -0.022567 0.108962 -4.121873 6.276744 0.504880 -0.465370 -5.179094 2.771991 -0.111775 -3.478459 -2.862959 -3.463596 5.441741 0.000000 0.000000 0.000000 -1.607552 0.928832 -9.827799 -0.238849 0.306469 6.199526 -1.465278 -4.025222 0.613942 0.000000 0.000000 0.000000 5.916289 -0.192957 0.228408 1.166740 -0.591685 2.125383 1.833229 1.962831 1.751906 7.380444 -3.617128 -13.674564 0.000000 0.000000 0.000000 -22.752436 -2.337838 -0.803113 -35.619727 -4.414209 -2.789458 -122.710659 -62.993683 101.883574 0.000000 0.000000 0.000000 18.531761 7.652191 2.114469 20.618706 18.682923 0.629984 115.194339 77.654461 106.804971 0.000000 0.000000 0.000000 
